<svg viewBox="0 0 820 300" xmlns="http://www.w3.org/2000/svg" font-family="'JetBrains Mono','Courier New',monospace"><rect width="820" height="300" fill="#070B14" rx="12"/>
  <rect x="14" y="20" width="175" height="165" rx="8" fill="rgba(15,22,42,0.95)" stroke="rgba(59,130,246,0.5)" stroke-width="1.5"/>
  <rect x="14" y="20" width="175" height="28" rx="8" fill="rgba(59,130,246,0.18)"/>
  <text x="101" y="38" fill="#93C5FD" font-size="10.5" text-anchor="middle" font-weight="700">🧑‍⚕️ PATIENT</text>
  <text x="22" y="64" fill="#FBBF24" font-size="8.5">🔑 patient_id</text>
  <text x="22" y="79" fill="#94A3B8" font-size="8.5">  full_name</text>
  <text x="22" y="93" fill="#94A3B8" font-size="8.5">  dob · gender</text>
  <text x="22" y="107" fill="#94A3B8" font-size="8.5">  contact · address</text>
  <text x="22" y="121" fill="#94A3B8" font-size="8.5">  blood_group</text>
  <text x="22" y="135" fill="#94A3B8" font-size="8.5">  uhid (unique health ID)</text>
  <text x="22" y="149" fill="#94A3B8" font-size="8.5">  insurance_id</text>
  <text x="22" y="163" fill="#94A3B8" font-size="8.5">  registered_at</text>

  <rect x="258" y="20" width="175" height="150" rx="8" fill="rgba(15,22,42,0.95)" stroke="rgba(236,72,153,0.5)" stroke-width="1.5"/>
  <rect x="258" y="20" width="175" height="28" rx="8" fill="rgba(236,72,153,0.18)"/>
  <text x="345" y="38" fill="#F9A8D4" font-size="10.5" text-anchor="middle" font-weight="700">👩‍⚕️ DOCTOR</text>
  <text x="266" y="64" fill="#FBBF24" font-size="8.5">🔑 doctor_id</text>
  <text x="266" y="79" fill="#94A3B8" font-size="8.5">  name · qualification</text>
  <text x="266" y="93" fill="#94A3B8" font-size="8.5">  specialisation</text>
  <text x="266" y="107" fill="#94A3B8" font-size="8.5">  department</text>
  <text x="266" y="121" fill="#94A3B8" font-size="8.5">  schedule (days/times)</text>
  <text x="266" y="135" fill="#94A3B8" font-size="8.5">  contact · room_no</text>
  <text x="266" y="149" fill="#94A3B8" font-size="8.5">  nabha_id</text>

  <rect x="502" y="20" width="180" height="165" rx="8" fill="rgba(15,22,42,0.95)" stroke="rgba(139,92,246,0.5)" stroke-width="1.5"/>
  <rect x="502" y="20" width="180" height="28" rx="8" fill="rgba(139,92,246,0.18)"/>
  <text x="592" y="38" fill="#C4B5FD" font-size="10.5" text-anchor="middle" font-weight="700">📅 APPOINTMENT</text>
  <text x="510" y="64" fill="#FBBF24" font-size="8.5">🔑 appt_id</text>
  <text x="510" y="79" fill="#F87171" font-size="8.5">🔗 patient_id (FK)</text>
  <text x="510" y="93" fill="#F87171" font-size="8.5">🔗 doctor_id (FK)</text>
  <text x="510" y="107" fill="#94A3B8" font-size="8.5">  date · time_slot</text>
  <text x="510" y="121" fill="#34D399" font-size="8.5">  status (ENUM)</text>
  <text x="510" y="135" fill="#94A3B8" font-size="8.5">  reason</text>
  <text x="510" y="149" fill="#94A3B8" font-size="8.5">  department</text>
  <text x="510" y="163" fill="#94A3B8" font-size="8.5">  booked_at</text>

  <rect x="14" y="205" width="175" height="85" rx="8" fill="rgba(15,22,42,0.95)" stroke="rgba(16,185,129,0.45)" stroke-width="1.5"/>
  <rect x="14" y="205" width="175" height="28" rx="8" fill="rgba(16,185,129,0.15)"/>
  <text x="101" y="223" fill="#6EE7B7" font-size="10.5" text-anchor="middle" font-weight="700">🏥 DEPARTMENT</text>
  <text x="22" y="249" fill="#FBBF24" font-size="8.5">🔑 dept_id</text>
  <text x="22" y="264" fill="#94A3B8" font-size="8.5">  name · head_doctor</text>
  <text x="22" y="279" fill="#94A3B8" font-size="8.5">  floor · contact_ext</text>

  <rect x="502" y="205" width="180" height="85" rx="8" fill="rgba(15,22,42,0.95)" stroke="rgba(245,158,11,0.4)" stroke-width="1.5"/>
  <rect x="502" y="205" width="180" height="28" rx="8" fill="rgba(245,158,11,0.12)"/>
  <text x="592" y="223" fill="#FCD34D" font-size="10.5" text-anchor="middle" font-weight="700">📋 MEDICAL_RECORD</text>
  <text x="510" y="249" fill="#FBBF24" font-size="8.5">🔑 record_id</text>
  <text x="510" y="264" fill="#F87171" font-size="8.5">🔗 patient_id · doctor_id</text>
  <text x="510" y="279" fill="#94A3B8" font-size="8.5">  diagnosis · prescription</text>

  <line x1="189" y1="90" x2="258" y2="90" stroke="#EC4899" stroke-width="1.2" stroke-dasharray="4,3"/>
  <text x="223" y="84" fill="#EC4899" font-size="8" text-anchor="middle">1:M</text>
  <line x1="433" y1="90" x2="502" y2="90" stroke="#8B5CF6" stroke-width="1.2" stroke-dasharray="4,3"/>
  <text x="467" y="84" fill="#8B5CF6" font-size="8" text-anchor="middle">1:M</text>
  <line x1="101" y1="185" x2="101" y2="205" stroke="#10B981" stroke-width="1.2" stroke-dasharray="4,3"/>
  <text x="115" y="200" fill="#10B981" font-size="8">ref</text>
  <line x1="592" y1="185" x2="592" y2="205" stroke="#F59E0B" stroke-width="1.2" stroke-dasharray="4,3"/>
  <text x="606" y="200" fill="#F59E0B" font-size="8">1:M</text>
</svg>