<svg viewBox="0 0 820 300" xmlns="http://www.w3.org/2000/svg" font-family="'JetBrains Mono','Courier New',monospace"><rect width="820" height="300" fill="#070B14" rx="12"/>
  <rect x="14" y="20" width="175" height="165" rx="8" fill="rgba(15,22,42,0.95)" stroke="rgba(59,130,246,0.5)" stroke-width="1.5"/>
  <rect x="14" y="20" width="175" height="28" rx="8" fill="rgba(59,130,246,0.18)"/>
  <text x="101" y="38" fill="#93C5FD" font-size="10.5" text-anchor="middle" font-weight="700">📄 HTML_PAGE</text>
  <text x="22" y="64" fill="#FBBF24" font-size="8.5">🔑 page_id</text>
  <text x="22" y="79" fill="#94A3B8" font-size="8.5">  filename</text>
  <text x="22" y="93" fill="#94A3B8" font-size="8.5">  purpose (hero/card/etc)</text>
  <text x="22" y="107" fill="#94A3B8" font-size="8.5">  section_count</text>
  <text x="22" y="121" fill="#94A3B8" font-size="8.5">  is_responsive</text>
  <text x="22" y="135" fill="#94A3B8" font-size="8.5">  linked_css[]</text>
  <text x="22" y="149" fill="#94A3B8" font-size="8.5">  linked_js[]</text>
  <text x="22" y="163" fill="#94A3B8" font-size="8.5">  breakpoints[]</text>

  <rect x="258" y="20" width="178" height="165" rx="8" fill="rgba(15,22,42,0.95)" stroke="rgba(139,92,246,0.5)" stroke-width="1.5"/>
  <rect x="258" y="20" width="178" height="28" rx="8" fill="rgba(139,92,246,0.18)"/>
  <text x="347" y="38" fill="#C4B5FD" font-size="10.5" text-anchor="middle" font-weight="700">🎨 CSS_MODULE</text>
  <text x="266" y="64" fill="#FBBF24" font-size="8.5">🔑 css_id</text>
  <text x="266" y="79" fill="#94A3B8" font-size="8.5">  filename</text>
  <text x="266" y="93" fill="#34D399" font-size="8.5">  type (layout/anim/util)</text>
  <text x="266" y="107" fill="#94A3B8" font-size="8.5">  uses_variables</text>
  <text x="266" y="121" fill="#94A3B8" font-size="8.5">  uses_grid</text>
  <text x="266" y="135" fill="#94A3B8" font-size="8.5">  uses_flexbox</text>
  <text x="266" y="149" fill="#94A3B8" font-size="8.5">  animation_count</text>
  <text x="266" y="163" fill="#94A3B8" font-size="8.5">  line_count</text>

  <rect x="508" y="20" width="178" height="150" rx="8" fill="rgba(15,22,42,0.95)" stroke="rgba(6,182,212,0.5)" stroke-width="1.5"/>
  <rect x="508" y="20" width="178" height="28" rx="8" fill="rgba(6,182,212,0.18)"/>
  <text x="597" y="38" fill="#67E8F9" font-size="10.5" text-anchor="middle" font-weight="700">⚡ JS_MODULE</text>
  <text x="516" y="64" fill="#FBBF24" font-size="8.5">🔑 js_id</text>
  <text x="516" y="79" fill="#94A3B8" font-size="8.5">  filename</text>
  <text x="516" y="93" fill="#34D399" font-size="8.5">  type (interaction/util)</text>
  <text x="516" y="107" fill="#94A3B8" font-size="8.5">  uses_dom</text>
  <text x="516" y="121" fill="#94A3B8" font-size="8.5">  uses_observer</text>
  <text x="516" y="135" fill="#94A3B8" font-size="8.5">  event_count</text>
  <text x="516" y="149" fill="#94A3B8" font-size="8.5">  line_count</text>

  <rect x="14" y="205" width="175" height="85" rx="8" fill="rgba(15,22,42,0.95)" stroke="rgba(16,185,129,0.45)" stroke-width="1.5"/>
  <rect x="14" y="205" width="175" height="28" rx="8" fill="rgba(16,185,129,0.15)"/>
  <text x="101" y="223" fill="#6EE7B7" font-size="10.5" text-anchor="middle" font-weight="700">🧩 COMPONENT</text>
  <text x="22" y="249" fill="#FBBF24" font-size="8.5">🔑 comp_id</text>
  <text x="22" y="264" fill="#94A3B8" font-size="8.5">  name (card/modal/nav)</text>
  <text x="22" y="279" fill="#94A3B8" font-size="8.5">  has_animation · reused_in</text>

  <rect x="508" y="180" width="178" height="110" rx="8" fill="rgba(15,22,42,0.95)" stroke="rgba(245,158,11,0.4)" stroke-width="1.5"/>
  <rect x="508" y="180" width="178" height="28" rx="8" fill="rgba(245,158,11,0.12)"/>
  <text x="597" y="198" fill="#FCD34D" font-size="10.5" text-anchor="middle" font-weight="700">🎯 DESIGN_TOKEN</text>
  <text x="516" y="224" fill="#94A3B8" font-size="8.5">  --color-primary</text>
  <text x="516" y="239" fill="#94A3B8" font-size="8.5">  --color-bg</text>
  <text x="516" y="254" fill="#94A3B8" font-size="8.5">  --spacing-unit</text>
  <text x="516" y="269" fill="#94A3B8" font-size="8.5">  --font-base</text>
  <text x="597" y="284" fill="#334155" font-size="7.5" text-anchor="middle">CSS custom properties</text>

  <line x1="189" y1="90" x2="258" y2="90" stroke="#8B5CF6" stroke-width="1.2" stroke-dasharray="4,3"/>
  <text x="223" y="84" fill="#8B5CF6" font-size="8" text-anchor="middle">uses</text>
  <line x1="436" y1="90" x2="508" y2="80" stroke="#06B6D4" stroke-width="1.2" stroke-dasharray="4,3"/>
  <text x="472" y="78" fill="#06B6D4" font-size="8" text-anchor="middle">uses</text>
  <line x1="101" y1="185" x2="101" y2="205" stroke="#10B981" stroke-width="1.2" stroke-dasharray="4,3"/>
  <text x="115" y="200" fill="#10B981" font-size="8">has</text>
  <line x1="597" y1="170" x2="597" y2="180" stroke="#F59E0B" stroke-width="1.2" stroke-dasharray="4,3"/>
  <text x="611" y="178" fill="#F59E0B" font-size="8">uses</text>
</svg>